<svg width="336" height="40" viewBox="0 0 336 40" fill="none" xmlns="http://www.w3.org/2000/svg">
<path d="M21.6226 17.6226H40.0452V0H34.6414L21.6226 17.6226Z" fill="#534EDA"/>
<path d="M21.6226 22.3849H40.0452V40H34.6414L21.6226 22.3849Z" fill="#534EDA"/>
<path d="M18.4226 17.6226H0V0H5.41132L18.4226 17.6226Z" fill="#534EDA"/>
<path d="M18.4226 22.3849H0V40H5.41132L18.4226 22.3849Z" fill="#534EDA"/>
<path d="M71.4114 10.0906H79.3133V29.9094H74.0454V15.8415L69.7737 25.1019H65.3888L61.3133 16.0151V29.917H56.0454V10.0906H63.9473L67.6001 18.6113L71.419 10.0906H71.4114Z" fill="white"/>
<path d="M84.1133 20.0301C84.1133 17.049 85.1171 14.5735 87.1321 12.5962C89.1397 10.6264 91.6755 9.6377 94.7321 9.6377C97.7888 9.6377 100.317 10.6188 102.302 12.5811C104.294 14.5434 105.291 17.0113 105.291 19.9698C105.291 22.9283 104.287 25.4264 102.272 27.4037C100.264 29.3735 97.7284 30.3622 94.6718 30.3622C91.6152 30.3622 89.0869 29.3811 87.102 27.4188C85.1095 25.4566 84.1133 22.9962 84.1133 20.0301ZM89.4944 19.9698C89.4944 21.6528 89.9925 23.0415 90.9812 24.1434C91.9699 25.2452 93.2227 25.7962 94.7321 25.7962C96.2416 25.7962 97.4793 25.2528 98.4529 24.166C99.4265 23.0792 99.9095 21.6981 99.9095 20.0151C99.9095 18.332 99.4114 16.9434 98.4227 15.8415C97.434 14.7396 96.1812 14.1886 94.6718 14.1886C93.1623 14.1886 91.9171 14.732 90.951 15.8188C89.9774 16.9056 89.4944 18.2868 89.4944 19.9698Z" fill="white"/>
<path d="M115.094 14.7321H108.528V10.0906H126.989V14.7321H120.423V29.9094H115.102V14.7321H115.094Z" fill="white"/>
<path d="M131.087 29.9094V10.0906H136.408V17.5925H144.928V10.0906H150.249V29.9094H144.928V22.234H136.408V29.9094H131.087Z" fill="white"/>
<path d="M155.94 29.9094V10.0906H171.457V14.566H161.268V17.683H170.664V22.1585H161.268V25.4415H171.457V29.917H155.94V29.9094Z" fill="white"/>
<path d="M190.423 22.1208L195.147 29.9094H188.944L185.094 23.1396H182.091V29.9094H176.823V10.0906H186.506C189.11 10.0906 191.11 10.634 192.491 11.7208C193.879 12.8076 194.574 14.3698 194.574 16.4076C194.574 17.8038 194.227 18.9811 193.525 19.9472C192.823 20.9132 191.789 21.6377 190.408 22.1283L190.423 22.1208ZM189.208 16.6038C189.208 15.9245 188.981 15.4113 188.528 15.0717C188.076 14.7321 187.389 14.566 186.46 14.566H182.098V18.7245H186.46C187.351 18.7245 188.03 18.5434 188.498 18.1736C188.966 17.8038 189.208 17.283 189.208 16.6038Z" fill="white"/>
<path d="M199.646 29.9094V10.0906H204.966V25.3811H214.166V29.9094H199.646Z" fill="white"/>
<path d="M218.332 29.9094V10.0906H223.653V29.9094H218.332Z" fill="white"/>
<path d="M234.521 18.0453V29.9094H229.396V10.0906H234.778L243.472 21.9547V10.0906H248.596V29.9094H243.215L234.521 18.0453Z" fill="white"/>
<path d="M254.295 10.0906H259.616V18.3547L267.201 10.0906H274.053V10.151L264.71 19.6377L274.136 29.8566V29.917H267.087L259.616 21.4264V29.917H254.295V10.0906Z" fill="white"/>
<rect x="283.136" y="9.5" width="51.8128" height="21" rx="10.5" stroke="#534EDA" stroke-width="2"/>
<path d="M290.146 26.2296V13.7905H296.256C297.768 13.7905 298.97 14.171 299.861 14.9422C300.753 15.7134 301.193 16.745 301.193 18.047C301.193 19.349 300.713 20.3806 299.761 21.1818C298.81 21.9831 297.568 22.3837 296.055 22.3837H293.481V26.2196H290.136L290.146 26.2296ZM297.828 18.0871C297.828 17.6464 297.688 17.3059 297.397 17.0655C297.107 16.8251 296.716 16.7049 296.206 16.7049H293.491V19.5093H296.135C296.656 19.5093 297.067 19.3791 297.367 19.1287C297.668 18.8783 297.818 18.5277 297.818 18.0871H297.828Z" fill="url(#paint0_radial_807_324)"/>
<path d="M312.501 21.3421L315.465 26.2296H311.569L309.156 21.9831H307.273V26.2296H303.968V13.7905H310.047C311.679 13.7905 312.931 14.131 313.803 14.812C314.674 15.4931 315.105 16.4746 315.105 17.7566C315.105 18.6379 314.884 19.369 314.444 19.98C314.003 20.5909 313.352 21.0416 312.491 21.3521L312.501 21.3421ZM311.73 17.8767C311.73 17.4461 311.589 17.1256 311.299 16.9153C311.018 16.7049 310.578 16.5948 310.007 16.5948H307.273V19.2088H310.007C310.568 19.2088 310.988 19.0886 311.289 18.8583C311.589 18.6279 311.73 18.2974 311.73 17.8767Z" fill="url(#paint1_radial_807_324)"/>
<path d="M317.659 20.02C317.659 18.1472 318.29 16.5948 319.551 15.3529C320.813 14.1109 322.406 13.5 324.319 13.5C326.232 13.5 327.824 14.121 329.076 15.3428C330.328 16.5747 330.949 18.1171 330.949 19.98C330.949 21.8428 330.318 23.4052 329.056 24.6471C327.794 25.8891 326.202 26.5 324.289 26.5C322.376 26.5 320.783 25.879 319.531 24.6471C318.28 23.4153 317.659 21.8729 317.659 20.01V20.02ZM321.034 19.99C321.034 21.0416 321.344 21.923 321.965 22.614C322.586 23.3051 323.367 23.6556 324.319 23.6556C325.27 23.6556 326.041 23.3151 326.652 22.6341C327.263 21.953 327.564 21.0817 327.564 20.03C327.564 18.9784 327.253 18.1071 326.632 17.406C326.011 16.7149 325.22 16.3644 324.279 16.3644C323.337 16.3644 322.556 16.7049 321.945 17.386C321.334 18.067 321.034 18.9384 321.034 19.99Z" fill="url(#paint2_radial_807_324)"/>
<defs>
<radialGradient id="paint0_radial_807_324" cx="0" cy="0" r="1" gradientTransform="matrix(-37.2548 -9.88676 5.41136 -18.9895 328.164 24.5094)" gradientUnits="userSpaceOnUse">
<stop stop-color="#D58893"/>
<stop offset="0.602602" stop-color="#534EDE"/>
</radialGradient>
<radialGradient id="paint1_radial_807_324" cx="0" cy="0" r="1" gradientTransform="matrix(-37.2548 -9.88676 5.41136 -18.9895 328.164 24.5094)" gradientUnits="userSpaceOnUse">
<stop stop-color="#D58893"/>
<stop offset="0.602602" stop-color="#534EDE"/>
</radialGradient>
<radialGradient id="paint2_radial_807_324" cx="0" cy="0" r="1" gradientTransform="matrix(-37.2548 -9.88676 5.41136 -18.9895 328.164 24.5094)" gradientUnits="userSpaceOnUse">
<stop stop-color="#D58893"/>
<stop offset="0.602602" stop-color="#534EDE"/>
</radialGradient>
</defs>
</svg>
